<?xml version="1.0" standalone="no"?>
<!DOCTYPE svg PUBLIC "-//W3C//DTD SVG 20010904//EN"
 "http://www.w3.org/TR/2001/REC-SVG-20010904/DTD/svg10.dtd">
<svg version="1.0" xmlns="http://www.w3.org/2000/svg"
 width="840.000000pt" height="859.000000pt" viewBox="0 0 840.000000 859.000000"
 preserveAspectRatio="xMidYMid meet">

<g transform="translate(0.000000,859.000000) scale(0.100000,-0.100000)"
fill="#000000" stroke="none">
<path d="M4020 8519 c-52 -21 -108 -46 -125 -53 -16 -8 -79 -35 -140 -61 -60
-26 -123 -53 -140 -60 -16 -7 -56 -25 -87 -39 -31 -14 -59 -26 -62 -26 -4 0
-169 -71 -311 -135 -16 -7 -79 -34 -140 -60 -60 -26 -123 -53 -140 -60 -16 -7
-56 -25 -87 -39 -31 -14 -59 -26 -62 -26 -2 0 -33 -13 -68 -29 -35 -16 -92
-41 -128 -56 -36 -15 -87 -37 -115 -50 -27 -12 -95 -41 -150 -65 -127 -54
-148 -62 -217 -94 -31 -14 -59 -26 -63 -26 -3 0 -34 -13 -68 -29 -34 -16 -91
-41 -127 -56 -36 -15 -83 -35 -105 -45 -22 -10 -89 -39 -150 -65 -60 -26 -135
-59 -165 -72 -30 -14 -89 -39 -130 -55 -41 -16 -79 -33 -85 -37 -5 -4 -29 -15
-52 -24 -38 -15 -86 -36 -168 -73 -16 -7 -50 -22 -75 -34 -126 -56 -227 -147
-281 -250 l-34 -65 0 -2555 0 -2555 35 -70 c71 -145 265 -292 505 -385 74 -29
105 -39 140 -48 22 -6 67 -17 100 -26 255 -65 580 -84 818 -46 l87 14 0 2225
c0 1253 4 2263 9 2311 24 221 136 425 311 564 60 48 193 136 205 136 3 0 33
13 67 29 35 16 160 70 278 121 118 50 240 103 270 117 30 14 84 37 120 51 36
14 70 29 75 33 6 4 33 16 60 27 28 11 75 31 105 45 30 14 152 66 270 117 411
177 445 192 500 217 30 14 75 33 100 43 25 10 75 32 113 49 37 17 69 31 72 31
2 0 32 13 67 29 35 16 124 54 198 86 74 31 163 70 198 86 35 16 65 29 67 29 3
0 154 66 320 139 22 10 70 30 108 46 76 32 78 36 47 119 -31 82 -115 146 -192
146 -27 0 -179 -58 -316 -121 -35 -16 -66 -29 -68 -29 -3 0 -33 -13 -67 -29
-54 -25 -164 -72 -482 -208 -44 -18 -100 -43 -124 -54 -24 -11 -67 -29 -95
-40 -28 -12 -55 -24 -61 -28 -5 -4 -29 -15 -52 -24 -23 -9 -64 -26 -90 -38
-26 -12 -61 -27 -78 -34 -16 -7 -127 -55 -245 -105 -118 -51 -237 -103 -265
-115 -27 -13 -79 -35 -115 -50 -36 -15 -87 -37 -115 -50 -27 -12 -142 -62
-255 -109 -113 -48 -227 -98 -255 -111 -27 -13 -79 -35 -115 -50 -36 -15 -93
-40 -127 -56 -34 -16 -65 -29 -68 -29 -3 0 -34 -13 -68 -29 -102 -47 -279
-117 -327 -129 -236 -58 -492 -57 -757 4 -50 11 -197 55 -218 64 -11 5 -33 14
-50 20 -16 6 -59 27 -93 47 -71 39 -72 37 25 76 23 9 64 26 90 38 109 49 132
59 228 99 55 23 125 53 155 67 30 14 89 39 130 55 41 16 80 33 85 37 6 4 29
15 52 24 23 9 64 26 90 38 61 27 62 28 343 149 129 55 254 110 277 120 24 11
45 20 48 20 2 0 30 12 62 26 100 46 135 61 238 104 55 23 125 53 155 67 30 14
75 33 100 43 25 10 75 32 113 49 37 17 70 31 72 31 2 0 28 11 57 24 29 13 79
36 110 50 31 14 59 26 62 26 3 0 29 11 58 25 29 13 111 49 182 79 l129 56 146
-61 c80 -34 169 -71 196 -84 28 -12 60 -25 73 -29 l22 -7 0 280 c0 308 -6 359
-51 421 -66 90 -168 103 -319 39z"/>
<path d="M6190 7446 c-30 -12 -75 -32 -100 -43 -25 -12 -74 -33 -110 -48 -36
-15 -83 -35 -105 -45 -22 -10 -89 -39 -150 -65 -60 -26 -128 -55 -150 -65 -22
-10 -80 -35 -130 -55 -49 -21 -94 -40 -100 -45 -5 -4 -29 -14 -52 -23 -23 -9
-64 -26 -90 -38 -26 -12 -61 -27 -78 -34 -16 -7 -79 -34 -140 -60 -60 -26
-123 -53 -140 -60 -16 -7 -56 -24 -88 -39 -32 -14 -60 -26 -63 -26 -3 0 -33
-13 -67 -29 -34 -16 -91 -41 -127 -56 -36 -15 -88 -37 -115 -50 -28 -12 -90
-39 -138 -59 -48 -20 -108 -45 -135 -57 -116 -52 -137 -61 -186 -80 -28 -12
-55 -24 -61 -28 -5 -4 -39 -19 -75 -33 -36 -14 -90 -37 -120 -51 -30 -14 -116
-51 -190 -82 -74 -32 -163 -70 -198 -86 -35 -16 -66 -29 -68 -29 -3 0 -39 -16
-80 -35 -41 -19 -76 -35 -78 -35 -22 0 -176 -83 -229 -123 -69 -52 -137 -140
-168 -217 -12 -30 -14 -409 -14 -2575 l0 -2540 27 -57 c41 -88 83 -143 151
-198 80 -65 71 -59 152 -107 258 -155 618 -242 998 -243 266 0 448 38 686 142
24 11 67 28 95 39 28 12 55 24 61 28 5 4 53 25 105 46 52 21 100 42 105 46 6
4 48 23 95 42 85 35 388 165 445 191 17 8 59 26 95 41 36 15 93 40 128 56 35
16 66 29 68 29 3 0 33 13 67 29 34 16 91 41 127 56 36 15 89 38 118 51 29 13
55 24 57 24 2 0 34 14 70 30 36 17 68 30 70 30 2 0 28 11 57 24 29 13 79 36
110 50 31 14 59 26 62 26 2 0 33 13 68 29 35 16 92 41 128 56 36 15 90 38 120
52 30 14 96 42 145 63 105 44 312 134 370 160 22 10 69 30 105 45 36 15 88 37
115 50 28 12 77 35 110 49 33 15 75 41 93 59 l32 31 0 2573 0 2573 -22 26
c-41 47 -99 74 -160 74 -30 0 -68 -6 -84 -14 -16 -8 -90 -40 -164 -71 -74 -32
-160 -68 -190 -82 -30 -14 -77 -34 -104 -45 -28 -10 -73 -30 -100 -43 -28 -13
-148 -65 -266 -115 -118 -51 -233 -100 -255 -110 -22 -10 -69 -30 -105 -45
-36 -15 -93 -40 -127 -56 -34 -16 -64 -29 -67 -29 -2 0 -33 -13 -68 -29 -35
-16 -175 -77 -313 -136 -137 -59 -273 -117 -302 -131 -28 -13 -54 -24 -57 -24
-2 0 -33 -13 -68 -29 -35 -16 -90 -40 -123 -54 -33 -13 -150 -64 -260 -112
-110 -48 -226 -98 -257 -111 -31 -13 -87 -38 -125 -55 -37 -17 -89 -39 -114
-49 -26 -10 -66 -28 -90 -38 -88 -40 -148 -56 -299 -83 -60 -10 -374 -14 -389
-4 -4 2 -41 9 -82 14 -107 15 -195 35 -301 72 -92 31 -248 106 -248 118 0 7
70 40 180 86 36 15 83 35 105 45 22 10 85 37 140 60 102 43 150 64 243 106 29
13 55 24 57 24 2 0 28 11 57 24 29 13 152 67 273 119 121 52 240 103 265 115
25 11 74 32 110 47 36 15 93 40 127 56 34 16 64 29 67 29 3 0 31 12 63 26 73
33 91 41 243 104 69 29 130 56 135 59 6 4 53 25 105 46 52 21 100 42 105 46 6
4 51 23 100 44 50 20 108 45 130 55 34 15 187 81 290 125 17 7 51 22 78 34 33
15 52 18 65 12 21 -11 50 -24 222 -95 74 -31 147 -63 163 -72 l27 -15 0 298
c0 164 -4 313 -10 332 -15 52 -59 110 -105 137 -60 35 -118 38 -185 10z"/>
</g>
</svg>
